Coordinates
version=1
nRows=12
nColumns=24
inDegrees=yes

Units are S.I. units (second, meters, Newtons, ...)
Angles are in degrees.

endheader
time	pelvis_tilt	pelvis_list	pelvis_rotation	pelvis_tx	pelvis_ty	pelvis_tz	hip_flexion_r	hip_adduction_r	hip_rotation_r	knee_angle_r	ankle_angle_r	subtalar_angle_r	mtp_angle_r	hip_flexion_l	hip_adduction_l	hip_rotation_l	knee_angle_l	ankle_angle_l	subtalar_angle_l	mtp_angle_l	lumbar_extension	lumbar_bending	lumbar_rotation
      4.18000000	     -6.26998072	    -17.26415042	      9.68137392	     -0.95754698	     -0.05198855	      0.52303621	     27.94792017	     19.68792596	     -1.61951329	    -26.63193635	      1.79694013	      0.77324278	      4.41926889	     19.48304966	    -20.43853490	      8.54678415	    -69.08587175	    -32.15589664	     16.00698731	     28.59533671	      7.06406947	     15.09571470	     -9.52303529
      4.18500000	     -6.28398414	    -17.24332543	      9.40291124	     -0.95023235	     -0.05101719	      0.52379774	     27.18517512	     20.02198742	     -1.02949373	    -26.28309679	      2.04723339	      0.49333084	      4.16101650	     20.45379869	    -20.20225836	      8.65042080	    -69.87912245	    -31.38945044	     15.17591736	     29.24954100	      6.99249367	     15.08728982	     -8.96042366
      4.19000000	     -6.26345445	    -17.17897331	      9.16704701	     -0.94288296	     -0.04995187	      0.52445754	     26.35276831	     20.29065347	     -0.42392700	    -25.90403150	      2.32743357	      0.29317194	      3.92902231	     21.36562462	    -19.89917246	      8.77724358	    -70.57721711	    -30.49284110	     14.50461839	     29.85870189	      6.90045732	     15.02994935	     -8.50518261
      4.19500000	     -6.25078814	    -17.07842777	      8.92208290	     -0.93554057	     -0.04885788	      0.52511341	     25.50887704	     20.51763842	      0.21279755	    -25.51732747	      2.58347083	      0.07182257	      3.67107279	     22.26085775	    -19.55685888	      8.86804776	    -71.18954038	    -29.54329600	     13.90676295	     30.40992810	      6.81497481	     14.93391365	     -8.03899181
      4.20000000	     -6.24325247	    -16.94745389	      8.66906810	     -0.92820825	     -0.04774543	      0.52576455	     24.65219363	     20.70826518	      0.88398611	    -25.12222119	      2.81960122	     -0.16836789	      3.38889319	     23.13772392	    -19.18500853	      8.92290518	    -71.71490234	    -28.56169176	     13.38009083	     30.91347872	      6.73299650	     14.80477575	     -7.56968483
      4.20500000	     -6.24037300	    -16.78758587	      8.40908354	     -0.92089912	     -0.04662203	      0.52639759	     23.78818676	     20.86032276	      1.57503612	    -24.72393099	      3.03459156	     -0.42170212	      3.08240285	     23.99805032	    -18.78415438	      8.94132204	    -72.15557867	    -27.56589416	     12.91382990	     31.37037423	      6.65583863	     14.64896227	     -7.10132102
      4.21000000	     -6.24501400	    -16.60357516	      8.13245734	     -0.91361154	     -0.04550016	      0.52703473	     22.91933543	     20.98201899	      2.29641184	    -24.32204491	      3.23420299	     -0.68863934	      2.74886171	     24.84016653	    -18.36461240	      8.92041645	    -72.50985080	    -26.56774134	     12.50563876	     31.78233828	      6.58110110	     14.46889174	     -6.62198306
      4.21500000	     -6.25660143	    -16.39781016	      7.84481549	     -0.90634961	     -0.04438497	      0.52765159	     22.04817178	     21.06986521	      3.03694523	    -23.91711610	      3.41853669	     -0.95625281	      2.39800274	     25.66688964	    -17.92731704	      8.86327721	    -72.77962506	    -25.58152688	     12.14684731	     32.14758931	      6.51259873	     14.27135130	     -6.13973925
      4.22000000	     -6.27167717	    -16.17882037	      7.54416774	     -0.89912929	     -0.04329323	      0.52826718	     21.17776088	     21.13403348	      3.78614353	    -23.51341306	      3.59363348	     -1.23151412	      2.02023484	     26.47880062	    -17.48614127	      8.77132060	    -72.96993744	    -24.61039066	     11.82768563	     32.46520833	      6.44231454	     14.06300247	     -5.64886266
      4.22500000	     -6.29589999	    -15.94153072	      7.22755139	     -0.89193330	     -0.04222073	      0.52887120	     20.31004188	     21.16702011	      4.54919306	    -23.10870268	      3.75943705	     -1.49478608	      1.63400363	     27.27406184	    -17.03394790	      8.64450388	    -73.07497788	    -23.66722085	     11.54809340	     32.73646140	      6.38166569	     13.84039659	     -5.15281668
      4.23000000	     -6.32509211	    -15.69830948	      6.89792779	     -0.88477476	     -0.04118653	      0.52946064	     19.44721727	     21.17955295	      5.30895371	    -22.70353041	      3.92286025	     -1.74834891	      1.24303264	     28.05544180	    -16.58379223	      8.49238449	    -73.10168950	    -22.75582565	     11.29263823	     32.96234286	      6.32206357	     13.61665533	     -4.65557526
      4.23500000	     -6.35803358	    -15.44782219	      6.55791984	     -0.87766127	     -0.04019142	      0.53003428	     18.59091632	     21.16904425	      6.06553718	    -22.30102299	      4.07870856	     -1.98666631	      0.84873564	     28.82391952	    -16.13947933	      8.30990592	    -73.05089796	    -21.88005423	     11.06110261	     33.14349731	      6.26456847	     13.39438913	     -4.15284803
